<?xml version="1.0" standalone="no"?>
<!DOCTYPE svg PUBLIC "-//W3C//DTD SVG 20010904//EN"
 "http://www.w3.org/TR/2001/REC-SVG-20010904/DTD/svg10.dtd">
<svg version="1.0" xmlns="http://www.w3.org/2000/svg"
 width="1024.000000pt" height="1024.000000pt" viewBox="0 0 1024.000000 1024.000000"
 preserveAspectRatio="xMidYMid meet">
<metadata>
Created by potrace 1.11, written by Peter Selinger 2001-2013
</metadata>
<g transform="translate(0.000000,1024.000000) scale(0.100000,-0.100000)"
fill="#000000" stroke="none">
<path d="M0 5120 l0 -5120 5120 0 5120 0 0 5120 0 5120 -5120 0 -5120 0 0
-5120z m4768 973 c61 -37 102 -113 102 -187 0 -180 -201 -286 -352 -186 -66
45 -92 90 -96 171 -4 59 -1 74 24 119 46 85 119 123 217 116 42 -3 72 -13 105
-33z m-2803 -37 c334 -87 586 -336 672 -664 34 -132 36 -306 4 -436 -27 -114
-87 -241 -157 -333 l-55 -74 126 -139 127 -140 -219 0 -218 0 -41 47 -41 47
-84 -41 c-133 -65 -197 -78 -389 -78 -149 0 -175 3 -264 28 -174 48 -326 137
-442 258 -111 117 -170 221 -221 388 -23 76 -26 103 -27 236 0 162 11 230 61
354 79 197 244 376 438 473 76 39 190 77 274 93 118 23 330 14 456 -19z m4965
-891 l0 -895 -190 0 -190 0 0 895 0 895 190 0 190 0 0 -895z m2260 650 l0
-245 145 0 145 0 0 -175 0 -175 -145 0 -145 0 0 -475 0 -475 -190 0 -190 0 0
475 0 475 -85 0 -85 0 0 175 0 175 85 0 85 0 0 245 0 245 190 0 190 0 0 -245z
m-1136 -247 c102 -28 181 -73 261 -150 78 -73 126 -146 161 -242 30 -83 48
-221 39 -302 l-7 -64 -479 0 -479 0 0 -27 c1 -45 34 -107 81 -146 66 -57 129
-72 289 -71 154 2 251 22 360 77 36 17 68 34 73 35 4 2 6 -72 5 -164 l-3 -167
-65 -33 c-181 -92 -488 -108 -704 -37 -97 33 -208 104 -271 176 -168 190 -205
533 -84 785 91 189 289 324 517 352 91 11 220 2 306 -22z m-4744 -383 c0 -423
4 -466 53 -521 49 -57 100 -77 189 -78 101 0 160 29 203 99 l30 48 3 419 3
418 195 0 195 0 -3 -462 c-3 -457 -3 -464 -26 -520 -69 -172 -197 -280 -394
-335 -89 -24 -318 -25 -408 0 -108 29 -205 81 -271 144 -68 64 -98 110 -131
199 -22 57 -22 72 -26 517 l-3 457 195 0 196 0 0 -385z m1530 -265 l0 -650
-195 0 -195 0 0 643 c0 354 3 647 7 650 3 4 91 7 195 7 l188 0 0 -650z m1520
645 c0 -3 -160 -218 -355 -479 -195 -260 -355 -475 -355 -479 0 -4 153 -7 340
-7 l340 0 0 -165 0 -165 -681 0 -681 0 79 103 c206 266 643 846 643 851 0 3
-133 6 -295 6 l-295 0 0 170 0 170 630 0 c347 0 630 -2 630 -5z"/>
<path d="M1563 5716 c-153 -35 -299 -149 -367 -288 -165 -334 3 -722 350 -812
80 -21 212 -20 286 0 32 9 58 19 58 23 0 3 -81 97 -180 208 -99 111 -180 205
-180 208 0 3 96 5 213 5 l214 0 98 -112 c54 -62 101 -114 106 -116 12 -5 59
82 79 146 38 123 35 262 -10 389 -53 151 -193 285 -349 334 -86 27 -235 34
-318 15z"/>
<path d="M7789 5270 c-61 -10 -126 -40 -168 -76 -32 -26 -70 -93 -71 -122 0
-10 61 -12 288 -10 l287 3 -3 25 c-2 14 -16 45 -31 70 -48 81 -185 131 -302
110z"/>
</g>
</svg>
